<svg width="409" height="409" viewBox="0 0 409 409" fill="none" xmlns="http://www.w3.org/2000/svg">
<circle cx="204.5" cy="204.5" r="204.5" fill="#CCF0FE"/>
<path d="M242.333 173.333H161.445C159.912 173.333 158.443 172.725 157.359 171.641C156.275 170.557 155.667 169.088 155.667 167.556V144.444C155.667 142.912 156.275 141.442 157.359 140.359C158.443 139.275 159.912 138.667 161.445 138.667H242.333C243.866 138.667 245.335 139.275 246.419 140.359C247.502 141.442 248.111 142.912 248.111 144.444V167.556C248.111 169.088 247.502 170.557 246.419 171.641C245.335 172.725 243.866 173.333 242.333 173.333ZM167.222 161.778H236.556V149.876H167.222V161.778Z" fill="#0C60D9"/>
<path d="M242.333 185.351H161.445C159.912 185.351 158.443 185.96 157.359 187.043C156.275 188.127 155.667 189.596 155.667 191.129V213.777C155.667 215.31 156.275 216.779 157.359 217.863C158.443 218.947 159.912 219.555 161.445 219.555H227.08L248.111 198.177V191.129C248.111 189.596 247.502 188.127 246.419 187.043C245.335 185.96 243.866 185.351 242.333 185.351ZM236.556 208H167.222V196.444H236.556V208Z" fill="#0C60D9"/>
<path d="M184.902 286.058V285.711L186.751 277.68H144.111V127.111H259.667V186.333L271.222 175.413V121.333C271.222 119.801 270.614 118.331 269.53 117.248C268.447 116.164 266.977 115.556 265.445 115.556H138.333C136.801 115.556 135.331 116.164 134.248 117.248C133.164 118.331 132.556 119.801 132.556 121.333V283.111C132.556 284.643 133.164 286.113 134.248 287.197C135.331 288.28 136.801 288.889 138.333 288.889H184.556C184.603 287.938 184.719 286.992 184.902 286.058V286.058Z" fill="#0C60D9"/>
<path d="M248.111 214.76L243.604 219.325C244.722 219.094 245.747 218.538 246.549 217.725C247.351 216.913 247.895 215.881 248.111 214.76Z" fill="#0C60D9"/>
<path d="M155.667 259.653C155.667 261.186 156.275 262.655 157.359 263.739C158.443 264.822 159.912 265.431 161.445 265.431H189.409L191.142 257.92L191.893 254.742V254.453H167.222V242.667H203.853L215.409 231.111H161.445C159.912 231.111 158.443 231.72 157.359 232.803C156.275 233.887 155.667 235.356 155.667 236.889V259.653Z" fill="#0C60D9"/>
<path d="M314.498 200.316L295.027 180.845C294.163 179.978 293.136 179.291 292.006 178.821C290.875 178.352 289.664 178.111 288.44 178.111C287.216 178.111 286.005 178.352 284.874 178.821C283.744 179.291 282.717 179.978 281.853 180.845L202.64 260.52L196.111 288.311C195.867 289.51 195.861 290.746 196.095 291.947C196.329 293.148 196.797 294.291 197.473 295.311C198.15 296.33 199.02 297.207 200.036 297.889C201.051 298.572 202.192 299.048 203.391 299.289C203.987 299.349 204.587 299.349 205.182 299.289C205.89 299.404 206.612 299.404 207.32 299.289L235.342 293.107L314.498 213.778C315.362 212.919 316.049 211.897 316.517 210.772C316.985 209.646 317.226 208.439 317.226 207.22C317.226 206.001 316.985 204.794 316.517 203.669C316.049 202.543 315.362 201.521 314.498 200.662V200.316ZM229.449 282.591L208.302 287.271L213.444 266.298L272.84 206.267L289.133 222.56L229.449 282.591ZM295.662 216.031L279.369 199.738L288.556 190.667L304.964 207.076L295.662 216.031Z" fill="#0C60D9"/>
</svg>
