<svg width="409" height="409" viewBox="0 0 409 409" fill="none" xmlns="http://www.w3.org/2000/svg">
<g clip-path="url(#clip0_65_3)">
<path d="M204.5 409C317.442 409 409 317.442 409 204.5C409 91.5578 317.442 0 204.5 0C91.5578 0 0 91.5578 0 204.5C0 317.442 91.5578 409 204.5 409Z" fill="#FFD0E7"/>
<path d="M247.086 135.106C245.927 139.68 246.322 144.511 248.208 148.837L194.943 204H160.047C149.316 204 140.501 209.432 134.506 217.143C128.54 224.812 125.188 234.9 125.188 244.928C125.188 246.134 125.667 247.29 126.519 248.143C127.372 248.996 128.529 249.475 129.734 249.475C130.94 249.475 132.097 248.996 132.95 248.143C133.802 247.29 134.281 246.134 134.281 244.928C134.281 236.822 137.022 228.723 141.678 222.739C146.309 216.786 152.651 213.1 160.047 213.1H186.164L120.392 281.224C118.695 282.982 118.695 285.844 120.453 287.547C122.211 289.305 125.012 289.305 126.837 287.608L203.467 213.1H238.859C264.534 213.1 286.183 191.948 285.844 166.055C285.799 161.984 285.116 157.946 283.819 154.087C285.654 151.962 287.049 149.494 287.923 146.826C288.797 144.157 289.133 141.342 288.911 138.543C288.689 135.744 287.914 133.017 286.631 130.52C285.347 128.023 283.581 125.805 281.434 123.995C279.287 122.186 276.802 120.82 274.124 119.978C271.445 119.136 268.626 118.834 265.83 119.089C263.034 119.344 260.316 120.152 257.834 121.465C255.353 122.778 253.156 124.571 251.372 126.739C247.291 125.765 243.115 125.245 238.92 125.187C219.641 124.921 202.296 134.875 195.24 152.275C195.015 152.828 194.902 153.42 194.906 154.017C194.911 154.614 195.032 155.205 195.265 155.755C195.734 156.865 196.626 157.744 197.744 158.198C198.861 158.651 200.113 158.642 201.224 158.172C201.774 157.94 202.272 157.601 202.692 157.176C203.111 156.751 203.442 156.247 203.667 155.694C209.099 142.296 222.666 134.057 238.799 134.281C241.636 134.317 244.413 134.596 247.086 135.1V135.106ZM258.666 138.967C263.57 141.429 267.747 144.787 270.851 148.861C269.365 149.419 267.759 149.579 266.193 149.324C264.626 149.069 263.154 148.408 261.922 147.408C260.69 146.408 259.741 145.102 259.17 143.621C258.598 142.141 258.425 140.536 258.666 138.967V138.967ZM264.546 131.795C266.017 131.26 267.601 131.112 269.146 131.368C270.69 131.624 272.142 132.274 273.362 133.256C274.581 134.238 275.526 135.517 276.106 136.972C276.686 138.426 276.881 140.005 276.671 141.556C273.246 137.604 269.139 134.298 264.546 131.795V131.795ZM276.01 159.853C276.465 161.853 276.72 163.957 276.75 166.176C277.017 186.837 259.623 204.006 238.859 204.006H212.827L258.575 159.525C261.327 160.835 264.407 161.562 267.656 161.562C270.627 161.562 273.446 160.956 276.01 159.853V159.853Z" fill="#E12780"/>
</g>
<defs>
<clipPath id="clip0_65_3">
<rect width="409" height="409" fill="white"/>
</clipPath>
</defs>
</svg>
