<svg width="409" height="409" viewBox="0 0 409 409" fill="none" xmlns="http://www.w3.org/2000/svg">
<g clip-path="url(#clip0_65_3)">
<path d="M210.663 193.346C210.484 194.054 210.545 194.801 210.836 195.47L202.599 204H197.203C195.544 204 194.181 204.84 193.253 206.033C192.331 207.219 191.813 208.779 191.813 210.329C191.813 210.516 191.887 210.694 192.018 210.826C192.15 210.958 192.329 211.032 192.516 211.032C192.702 211.032 192.881 210.958 193.013 210.826C193.145 210.694 193.219 210.516 193.219 210.329C193.219 209.076 193.643 207.823 194.363 206.898C195.079 205.977 196.059 205.407 197.203 205.407H201.242L191.071 215.942C190.808 216.214 190.808 216.656 191.08 216.92C191.352 217.192 191.785 217.192 192.068 216.929L203.918 205.407H209.391C213.361 205.407 216.709 202.136 216.656 198.132C216.649 197.503 216.544 196.878 216.343 196.282C216.627 195.953 216.843 195.571 216.978 195.159C217.113 194.746 217.165 194.311 217.131 193.878C217.096 193.445 216.976 193.023 216.778 192.637C216.579 192.251 216.306 191.908 215.974 191.628C215.642 191.348 215.258 191.137 214.844 191.007C214.43 190.877 213.994 190.83 213.561 190.87C213.129 190.909 212.709 191.034 212.325 191.237C211.941 191.44 211.601 191.717 211.326 192.053C210.695 191.902 210.049 191.822 209.4 191.813C206.419 191.771 203.737 193.311 202.645 196.001C202.611 196.087 202.593 196.178 202.594 196.271C202.594 196.363 202.613 196.454 202.649 196.54C202.722 196.711 202.86 196.847 203.033 196.917C203.205 196.987 203.399 196.986 203.571 196.913C203.656 196.877 203.733 196.825 203.798 196.759C203.863 196.694 203.914 196.616 203.948 196.53C204.788 194.458 206.887 193.184 209.381 193.219C209.82 193.224 210.249 193.268 210.663 193.345V193.346ZM212.453 193.944C213.212 194.324 213.858 194.844 214.338 195.474C214.108 195.56 213.86 195.584 213.617 195.545C213.375 195.506 213.148 195.403 212.957 195.249C212.766 195.094 212.62 194.892 212.531 194.663C212.443 194.434 212.416 194.186 212.453 193.944V193.944ZM213.363 192.834C213.59 192.752 213.835 192.729 214.074 192.768C214.313 192.808 214.537 192.909 214.726 193.06C214.915 193.212 215.061 193.41 215.15 193.635C215.24 193.86 215.27 194.104 215.238 194.344C214.708 193.733 214.073 193.221 213.363 192.834V192.834ZM215.136 197.173C215.206 197.483 215.245 197.808 215.25 198.151C215.291 201.346 212.602 204.001 209.391 204.001H205.365L212.439 197.123C212.865 197.325 213.341 197.438 213.844 197.438C214.303 197.438 214.739 197.344 215.136 197.173V197.173Z" fill="black"/>
<path d="M204.5 409C317.442 409 409 317.442 409 204.5C409 91.5578 317.442 0 204.5 0C91.5578 0 0 91.5578 0 204.5C0 317.442 91.5578 409 204.5 409Z" fill="#CEC5FE"/>
<path d="M216.125 222.188C216.125 220.58 216.764 219.038 217.901 217.901C219.038 216.764 220.58 216.125 222.188 216.125H246.438C248.045 216.125 249.587 216.764 250.724 217.901C251.861 219.038 252.5 220.58 252.5 222.188V246.438C252.5 248.045 251.861 249.587 250.724 250.724C249.587 251.861 248.045 252.5 246.438 252.5H222.188C220.58 252.5 219.038 251.861 217.901 250.724C216.764 249.587 216.125 248.045 216.125 246.438V222.188ZM228.25 240.375H240.375V228.25H228.25V240.375ZM157.78 120.459L127.467 144.709C125.454 146.309 125.188 149.074 125.188 151.499V173.688C125.188 180.514 127.443 186.807 131.25 191.875V282.812C131.25 284.42 131.889 285.962 133.026 287.099C134.163 288.236 135.705 288.875 137.312 288.875H270.688C272.295 288.875 273.837 288.236 274.974 287.099C276.111 285.962 276.75 284.42 276.75 282.812V191.875C280.557 186.807 282.812 180.514 282.812 173.688V151.45C282.812 149.025 282.546 146.309 280.533 144.709L250.221 120.459C249.147 119.598 247.813 119.127 246.438 119.125H161.562C160.187 119.127 158.853 119.598 157.78 120.459V120.459ZM173.688 155.5V173.688C173.688 178.511 171.771 183.137 168.361 186.548C164.95 189.959 160.324 191.875 155.5 191.875C150.676 191.875 146.05 189.959 142.639 186.548C139.229 183.137 137.312 178.511 137.312 173.688V155.5H173.688ZM222.188 155.5V173.688C222.187 178.511 220.271 183.137 216.861 186.548C213.45 189.959 208.824 191.875 204 191.875C199.176 191.875 194.55 189.959 191.139 186.548C187.729 183.137 185.812 178.511 185.812 173.688V155.5H222.188ZM270.688 155.5V173.688C270.688 178.511 268.771 183.137 265.361 186.548C261.95 189.959 257.324 191.875 252.5 191.875C247.676 191.875 243.05 189.959 239.639 186.548C236.229 183.137 234.313 178.511 234.312 173.688V155.5H270.688ZM180.102 131.25L175.555 143.375H148.528L163.684 131.25H180.114H180.102ZM188.504 143.375L193.051 131.25H214.791L218.829 143.375H188.504V143.375ZM227.571 131.25H244.304L259.46 143.375H231.609L227.571 131.25V131.25ZM264.625 201.478V276.75H204V222.188C204 220.58 203.361 219.038 202.224 217.901C201.087 216.764 199.545 216.125 197.938 216.125H161.562C159.955 216.125 158.413 216.764 157.276 217.901C156.139 219.038 155.5 220.58 155.5 222.188V276.75H143.375V201.478C149.632 204.217 156.632 204.759 163.236 203.015C169.84 201.272 175.66 197.346 179.75 191.875C185.279 199.235 194.082 204 204 204C213.918 204 222.721 199.235 228.25 191.875C232.34 197.346 238.16 201.272 244.764 203.015C251.368 204.759 258.368 204.217 264.625 201.478V201.478ZM191.875 276.75H167.625V228.25H191.875V276.75Z" fill="#4627E1"/>
</g>
<defs>
<clipPath id="clip0_65_3">
<rect width="409" height="409" fill="white"/>
</clipPath>
</defs>
</svg>
