<svg width="409" height="409" viewBox="0 0 409 409" fill="none" xmlns="http://www.w3.org/2000/svg">
<g clip-path="url(#clip0_65_3)">
<path d="M204.5 409C317.442 409 409 317.442 409 204.5C409 91.5578 317.442 0 204.5 0C91.5578 0 0 91.5578 0 204.5C0 317.442 91.5578 409 204.5 409Z" fill="#FEE0C5"/>
<g clip-path="url(#clip1_65_3)">
<path d="M206.444 203.111C221.444 203.111 233.111 190.889 233.111 175.889C233.111 160.889 220.889 149.222 205.889 149.222C190.889 149.222 179.222 161.444 179.222 175.889C179.222 190.889 191.444 203.111 206.444 203.111ZM205.889 160.333C206.444 160.333 206.444 160.333 205.889 160.333C214.778 160.333 222 167.555 222 176.444C222 185.333 214.778 192 205.889 192C197 192 190.333 184.778 190.333 176.444C190.333 167.555 197.555 160.333 205.889 160.333V160.333Z" fill="#FC7D07"/>
<path d="M288.667 199.778C278.111 190.333 264.222 185.333 249.778 185.889H245.333C244.222 190.333 242.555 194.222 240.333 197.556C243.667 197 246.444 197 249.778 197C260.333 196.445 270.889 199.778 279.222 205.889V245.889H290.333V201.445L288.667 199.778Z" fill="#FC7D07"/>
<path d="M237 150.333C239.778 143.666 247.556 140.333 254.778 143.111C261.444 145.889 264.778 153.666 262 160.889C259.778 165.889 254.778 169.222 249.778 169.222C248.667 169.222 247 169.222 245.889 168.666C246.444 171.444 246.444 174.222 246.444 176.444V179.778C247.556 179.778 248.667 180.333 249.778 180.333C263.667 180.333 274.778 169.222 274.778 155.889C274.778 142 263.667 130.889 250.333 130.889C241.444 130.889 233.667 135.333 229.222 143.111C232 144.778 234.778 147 237 150.333V150.333Z" fill="#FC7D07"/>
<path d="M173.667 198.111C171.445 194.778 169.778 190.889 168.667 186.444H164.222C149.778 185.889 135.889 190.889 125.333 199.778L123.667 201.444V245.889H134.778V205.889C143.667 199.778 153.667 196.444 164.222 197C167.556 197 170.889 197.555 173.667 198.111Z" fill="#FC7D07"/>
<path d="M164.222 179.778C165.333 179.778 166.444 179.778 167.556 179.222V175.889C167.556 173.111 167.556 170.333 168.111 168.111C167 168.667 165.333 168.667 164.222 168.667C157 168.667 150.889 162.556 150.889 155.333C150.889 148.111 157 142 164.222 142C169.778 142 174.778 145.333 177 150.333C179.222 147.556 182.556 144.778 185.333 142.556C178.111 130.889 163.111 127 151.444 134.222C139.778 141.444 135.889 156.444 143.111 168.111C147.556 175.333 155.333 179.778 164.222 179.778V179.778Z" fill="#FC7D07"/>
<path d="M252 233.111L250.889 231.445C239.778 219.222 224.222 212 207.556 212.556C190.889 212 174.778 219.222 163.667 231.445L162.556 233.111V275.334C162.556 280.334 166.445 284.778 172 284.778H243.111C248.111 284.778 252.556 280.334 252.556 275.334V233.111H252ZM240.889 273.667H173.667V237C182.556 228.111 194.778 223.667 207.556 223.667C219.778 223.111 232 228.111 240.889 237V273.667Z" fill="#FC7D07"/>
</g>
</g>
<defs>
<clipPath id="clip0_65_3">
<rect width="409" height="409" fill="white"/>
</clipPath>
<clipPath id="clip1_65_3">
<rect width="200" height="200" fill="white" transform="translate(107 107)"/>
</clipPath>
</defs>
</svg>
