<svg width="409" height="409" viewBox="0 0 409 409" fill="none" xmlns="http://www.w3.org/2000/svg">
<circle cx="204.5" cy="204.5" r="204.5" fill="#FFEAEA"/>
<path d="M167.05 123.43C169.448 122.352 172.174 122.262 174.639 123.179C177.103 124.096 179.107 125.947 180.216 128.33C181.326 130.714 181.452 133.439 180.568 135.915C179.683 138.391 177.859 140.419 175.49 141.56C161.029 148.27 149.292 159.718 142.224 174.008C135.156 188.297 133.179 204.572 136.622 220.139C140.064 235.705 148.719 249.629 161.154 259.606C173.589 269.582 189.058 275.013 205 275C220.922 275.001 236.368 269.572 248.788 259.61C261.209 249.649 269.861 235.749 273.316 220.207C276.771 204.664 274.823 188.408 267.793 174.123C260.764 159.837 249.072 148.375 234.65 141.63C232.294 140.477 230.486 138.446 229.614 135.972C228.742 133.499 228.877 130.782 229.989 128.407C231.101 126.032 233.102 124.189 235.56 123.275C238.018 122.361 240.736 122.449 243.13 123.52C258.633 130.766 271.748 142.283 280.936 156.721C290.123 171.158 295.002 187.917 295 205.03C295 254.72 254.7 295 205 295C155.3 295 115 254.72 115 205.03C114.997 187.882 119.894 171.091 129.116 156.634C138.338 142.177 151.499 130.656 167.05 123.43V123.43ZM205 95C207.449 95.0003 209.813 95.8996 211.644 97.5272C213.474 99.1547 214.643 101.397 214.93 103.83L215 105V175C214.997 177.549 214.021 180 212.272 181.854C210.522 183.707 208.13 184.822 205.586 184.972C203.042 185.121 200.536 184.293 198.582 182.657C196.627 181.021 195.371 178.701 195.07 176.17L195 175V105C195 102.348 196.054 99.8043 197.929 97.9289C199.804 96.0536 202.348 95 205 95V95Z" fill="#E64343" fill-opacity="0.9"/>
</svg>
