<svg width="409" height="409" viewBox="0 0 409 409" fill="none" xmlns="http://www.w3.org/2000/svg">
<circle cx="204.5" cy="204.5" r="204.5" fill="#EFF4F5"/>
<path d="M284.143 214.429V200.5C284.143 196.806 282.675 193.263 280.063 190.651C277.451 188.039 273.908 186.571 270.214 186.571H130.929C127.234 186.571 123.692 188.039 121.08 190.651C118.467 193.263 117 196.806 117 200.5V284.071C117 287.766 118.467 291.308 121.08 293.92C123.692 296.533 127.234 298 130.929 298H270.214C273.908 298 277.451 296.533 280.063 293.92C282.675 291.308 284.143 287.766 284.143 284.071V270.143M284.143 214.429H228.429C221.04 214.429 213.955 217.364 208.731 222.588C203.506 227.812 200.571 234.898 200.571 242.286C200.571 249.674 203.506 256.759 208.731 261.984C213.955 267.208 221.04 270.143 228.429 270.143H284.143M284.143 214.429C291.531 214.429 298.617 217.364 303.841 222.588C309.065 227.812 312 234.898 312 242.286C312 249.674 309.065 256.759 303.841 261.984C298.617 267.208 291.531 270.143 284.143 270.143M158.786 186.571V144.786C158.786 133.703 163.188 123.075 171.024 115.239C178.861 107.402 189.489 103 200.571 103C211.654 103 222.282 107.402 230.118 115.239C237.955 123.075 242.357 133.703 242.357 144.786V186.571M277.179 242.286H291.107M249.321 242.286H263.25M221.464 242.286H235.393" stroke="black" stroke-width="13"/>
</svg>
