<svg width="409" height="409" viewBox="0 0 409 409" fill="none" xmlns="http://www.w3.org/2000/svg">
<circle cx="204.5" cy="204.5" r="204.5" fill="#DCFFEB"/>
<path d="M182.615 103C153.515 103 130.385 126.307 130.385 155.63C130.334 164.252 132.398 172.754 136.394 180.379C140.391 188.004 146.195 194.516 153.292 199.335C126.728 210.861 108 237.521 108 268.407H122.923C122.923 235.326 149.785 208.259 182.615 208.259C211.715 208.259 234.846 184.952 234.846 155.63C234.846 126.307 211.715 103 182.615 103ZM182.615 118.037C203.508 118.037 219.923 134.578 219.923 155.63C219.923 176.681 203.508 193.222 182.615 193.222C161.723 193.222 145.308 176.681 145.308 155.63C145.308 134.578 161.723 118.037 182.615 118.037ZM243.054 200.741V216.53C238.577 217.281 234.1 219.537 230.369 221.793L219.177 210.515L208.731 221.041L219.923 232.319C216.938 236.078 215.446 240.589 214.7 245.852H197.538V260.889H213.208C213.954 265.4 216.192 269.911 218.431 274.422L207.238 285.7L217.685 296.226L228.877 284.948C232.608 287.204 237.085 289.459 241.562 290.211V306H256.485V290.211C260.962 289.459 265.438 287.204 269.169 284.948L280.362 296.226L290.808 285.7L279.615 274.422C282.6 270.663 284.092 266.152 284.838 260.889H302V245.852H286.331C285.585 241.341 283.346 236.83 281.108 232.319L292.3 221.041L281.854 210.515L270.662 221.793C266.931 219.537 262.454 217.281 257.977 216.53V200.741H243.054ZM249.769 230.815C262.454 230.815 272.154 240.589 272.154 253.37C272.154 266.152 262.454 275.926 249.769 275.926C237.085 275.926 227.385 266.152 227.385 253.37C227.385 240.589 237.085 230.815 249.769 230.815ZM249.769 245.852C248.821 245.864 247.886 246.084 247.031 246.498C246.143 246.924 245.335 247.501 244.643 248.205C243.945 248.902 243.371 249.716 242.949 250.611C242.538 251.473 242.319 252.414 242.308 253.37C242.308 256.19 244.404 259.009 247.031 260.242C247.886 260.656 248.821 260.877 249.769 260.889C253.5 260.889 257.231 257.13 257.231 253.37C257.231 249.611 253.5 245.852 249.769 245.852Z" fill="#25AF60"/>
</svg>
